<svg width="82" height="38" viewBox="0 0 82 38" fill="none" xmlns="http://www.w3.org/2000/svg">
<path d="M19.2353 26.88C19.5339 26.88 19.7473 26.944 19.8753 27.072C20.0246 27.2 20.0993 27.4133 20.0993 27.712V31.168C20.0993 31.7227 19.8113 32 19.2353 32H5.76325C5.48592 32 5.27258 31.936 5.12325 31.808C4.99525 31.6587 4.93125 31.4453 4.93125 31.168V10.432C4.93125 10.1333 4.99525 9.92 5.12325 9.792C5.27258 9.664 5.48592 9.6 5.76325 9.6H19.2033C19.7793 9.6 20.0673 9.87733 20.0673 10.432V13.888C20.0673 14.1867 19.9926 14.4 19.8433 14.528C19.7153 14.656 19.5019 14.72 19.2033 14.72H10.9792C10.7873 14.72 10.6593 14.7627 10.5953 14.848C10.5313 14.912 10.4993 15.0293 10.4993 15.2V17.696C10.4993 17.888 10.5313 18.016 10.5953 18.08C10.6593 18.144 10.7873 18.176 10.9792 18.176H18.1473C18.4459 18.176 18.6593 18.2507 18.7873 18.4C18.9153 18.528 18.9792 18.7413 18.9792 19.04V22.464C18.9792 22.7413 18.9153 22.9547 18.7873 23.104C18.6593 23.232 18.4459 23.296 18.1473 23.296H10.9792C10.7873 23.296 10.6593 23.3387 10.5953 23.424C10.5313 23.488 10.4993 23.6053 10.4993 23.776V26.4C10.4993 26.5707 10.5313 26.6987 10.5953 26.784C10.6593 26.848 10.7873 26.88 10.9792 26.88H19.2353ZM23.9313 10.432C23.9313 10.1333 23.9953 9.92 24.1233 9.792C24.2726 9.664 24.4859 9.6 24.7633 9.6H32.6353C35.2166 9.6 37.4246 10.048 39.2593 10.944C41.0939 11.84 42.4913 13.1093 43.4513 14.752C44.4113 16.3947 44.8913 18.3253 44.8913 20.544C44.8913 22.8693 44.3899 24.896 43.3873 26.624C42.3846 28.3307 40.9126 29.6533 38.9713 30.592C37.0513 31.5307 34.7579 32 32.0913 32H24.7633C24.4859 32 24.2726 31.936 24.1233 31.808C23.9953 31.6587 23.9313 31.4453 23.9313 31.168V10.432ZM29.9792 14.72C29.7873 14.72 29.6593 14.7627 29.5953 14.848C29.5313 14.912 29.4993 15.0293 29.4993 15.2V26.4C29.4993 26.5707 29.5313 26.6987 29.5953 26.784C29.6593 26.848 29.7873 26.88 29.9792 26.88H32.0593C34.3633 26.88 36.1126 26.336 37.3073 25.248C38.5233 24.16 39.1313 22.6453 39.1313 20.704C39.1313 19.488 38.8646 18.432 38.3313 17.536C37.7979 16.64 37.0086 15.9467 35.9633 15.456C34.9393 14.9653 33.6806 14.72 32.1873 14.72H29.9792ZM51.6098 30.976C51.4178 31.3813 51.2151 31.6587 51.0018 31.808C50.7884 31.936 50.4791 32 50.0738 32H46.1698C45.7004 32 45.4657 31.8507 45.4657 31.552C45.4657 31.36 45.5191 31.168 45.6258 30.976L55.8338 10.656C56.1324 10.0373 56.3884 9.61067 56.6018 9.376C56.8151 9.14133 57.0498 9.024 57.3058 9.024C57.5618 9.024 57.7858 9.14133 57.9778 9.376C58.1911 9.61067 58.4578 10.0373 58.7778 10.656L69.0498 30.976C69.1564 31.168 69.2098 31.3493 69.2098 31.52C69.2098 31.84 68.9644 32 68.4738 32H64.3778C63.9724 32 63.6631 31.936 63.4498 31.808C63.2578 31.6587 63.0658 31.3813 62.8738 30.976L57.2098 19.328L51.6098 30.976ZM77.0618 31.168C77.0618 31.4667 76.9871 31.68 76.8378 31.808C76.7098 31.936 76.4964 32 76.1978 32H72.3258C72.0484 32 71.8351 31.936 71.6858 31.808C71.5578 31.6587 71.4938 31.4453 71.4938 31.168V10.432C71.4938 10.1333 71.5578 9.92 71.6858 9.792C71.8351 9.664 72.0484 9.6 72.3258 9.6H76.1978C76.4964 9.6 76.7098 9.664 76.8378 9.792C76.9871 9.92 77.0618 10.1333 77.0618 10.432V31.168Z" fill="black"/>
</svg>
